<svg width="451" height="80" viewBox="0 0 451 80" fill="none" xmlns="http://www.w3.org/2000/svg">
<g clip-path="url(#clip0_43_527)">
<g clip-path="url(#clip1_43_527)">
<path d="M62.9501 9.43604C62.9058 9.32376 62.8305 9.22642 62.7329 9.15543C62.6353 9.08444 62.5195 9.04275 62.399 9.03523C54.3601 8.48762 37.7071 18.2979 29.7273 29.6227C28.3017 31.6294 27.0538 33.7564 25.9976 35.9798C22.9749 36.2329 20.036 36.9693 17.6907 38.5155C11.0785 42.9083 10.4204 51.4912 10.4533 55.1286C10.454 55.3279 10.5009 55.5243 10.5903 55.7024C10.6797 55.8805 10.8092 56.0354 10.9686 56.155C11.1281 56.2746 11.3131 56.3555 11.5091 56.3915C11.7051 56.4274 11.9068 56.4174 12.0983 56.3623L23.3743 53.0999C23.5328 53.9652 23.7353 54.8219 23.9809 55.6666C24.1426 56.2548 24.5051 56.7677 25.0056 57.1164L30.2277 60.7853C30.7249 61.1384 31.3298 61.3069 31.938 61.2617C32.8112 61.2089 33.6812 61.1119 34.5445 60.9709L35.275 72.6712C35.2878 72.87 35.3465 73.0631 35.4465 73.2354C35.5464 73.4077 35.685 73.5545 35.8512 73.6643C36.0174 73.7741 36.2068 73.8439 36.4045 73.8682C36.6022 73.8925 36.8028 73.8707 36.9907 73.8045C40.4225 72.6259 48.2967 69.1128 50.1872 61.4106C50.853 58.6814 50.5655 55.6796 49.7962 52.7614C51.5386 51.0171 53.1258 49.1243 54.5398 47.1045C62.5524 35.789 66.2109 17.2089 62.9501 9.43604ZM42.8838 37.2861C41.8462 36.5558 41.0485 35.5341 40.5916 34.3504C40.1347 33.1667 40.0391 31.8741 40.317 30.636C40.5948 29.398 41.2336 28.2701 42.1525 27.3952C43.0714 26.5202 44.2292 25.9374 45.4793 25.7205C46.7295 25.5036 48.0159 25.6624 49.1758 26.1767C50.3358 26.691 51.3171 27.5378 51.9957 28.6099C52.6743 29.682 53.0198 30.9313 52.9883 32.1998C52.9568 33.4682 52.5498 34.6989 51.8188 35.736C51.3343 36.4249 50.7187 37.0116 50.0073 37.4624C49.2959 37.9133 48.5025 38.2194 47.6727 38.3634C46.8428 38.5074 45.9927 38.4863 45.171 38.3015C44.3493 38.1166 43.5721 37.7716 42.8838 37.2861Z" fill="#1D2E8C"/>
<path d="M30.4827 64.0545C29.8866 64.9025 28.7781 65.3851 27.4269 65.8677C24.3896 66.9439 21.1567 64.7189 21.17 61.4574C21.1766 60.2207 21.5195 58.4292 21.846 57.9656C21.9176 57.866 21.9561 57.7463 21.9558 57.6236C21.9556 57.5008 21.9167 57.3813 21.8446 57.2819C21.7726 57.1826 21.6711 57.1084 21.5545 57.07C21.4379 57.0316 21.3122 57.031 21.1952 57.0681C19.4822 57.5859 17.9916 58.6618 16.9608 60.1247C14.4027 63.7599 16.1048 75.3066 16.1048 75.3066C16.1048 75.3066 27.5566 73.0187 30.1147 69.3836C31.1489 67.9206 31.6605 66.152 31.567 64.3628C31.5202 63.804 30.7932 63.5924 30.4827 64.0545Z" fill="#1D2E8C"/>
</g>
</g>
<path d="M101.989 41.6775L100.86 41.7006C99.846 44.6497 99.0165 47.2072 98.3714 49.3731C97.7263 51.5235 97.204 52.929 96.8046 53.5895C96.4206 54.2346 95.9982 54.7569 95.5374 55.1562C95.092 55.5402 94.5159 55.8321 93.8094 56.0318C92.642 56.3543 91.0599 56.5156 89.063 56.5156C87.0662 56.5156 85.1461 56.2929 83.3029 55.8474C81.475 55.402 80.0158 54.8567 78.9252 54.2116C77.8346 53.5511 77.2893 52.9136 77.2893 52.2992C77.2893 51.9459 77.4429 51.6694 77.7501 51.4697C78.042 51.2547 78.3876 51.1472 78.7869 51.1472C80.2001 51.1472 81.2369 50.9245 81.8974 50.479C82.5733 50.0182 83.2107 49.1811 83.8098 47.9676C84.4088 46.7541 85.0002 45.3486 85.5839 43.7512C86.183 42.1537 86.7359 40.6714 87.2428 39.3043C87.7651 37.9373 88.3641 36.5395 89.04 35.111C90.4839 32.0389 92.2733 29.9883 94.4084 28.9592C95.4376 28.4676 96.8046 28.0913 98.5096 27.8302C100.215 27.5537 101.543 27.4154 102.496 27.4154C103.448 27.4154 104.07 27.4308 104.362 27.4615C104.654 27.4769 104.946 27.523 105.237 27.5998C105.837 27.7534 106.136 28.0913 106.136 28.6135C106.136 28.9361 106.075 29.2356 105.952 29.5121C105.829 29.7886 105.453 30.4568 104.823 31.5166C104.208 32.5612 103.148 35.2031 101.643 39.4426C109.799 38.4902 113.878 35.5103 113.878 30.5029C113.878 28.8132 113.348 27.546 112.288 26.7012C111.197 25.8564 110.091 25.3418 108.97 25.1575C107.296 24.881 105.453 24.7427 103.44 24.7427C101.443 24.7427 99.3545 24.9347 97.1733 25.3187C94.9921 25.6874 93.2948 26.1021 92.0813 26.5629C90.8832 27.0084 89.808 27.4231 88.8557 27.8071C87.9187 28.1758 87.3196 28.3601 87.0585 28.3601C86.2444 28.3601 85.8373 28.0913 85.8373 27.5537C85.8373 26.8778 86.2751 26.2634 87.1507 25.7104C90.192 23.7597 93.6711 22.2774 97.588 21.2636C101.505 20.2498 106.413 19.7429 112.311 19.7429C115.337 19.7429 117.864 20.0578 119.891 20.6876C121.919 21.302 123.47 21.9548 124.545 22.646C125.636 23.3219 126.527 24.2205 127.218 25.3418C127.909 26.4631 128.255 27.6919 128.255 29.0283C128.255 30.3646 128.002 31.5474 127.495 32.5765C126.988 33.5903 126.289 34.4658 125.398 35.2031C124.522 35.9251 123.409 36.5779 122.057 37.1616C119.722 38.16 116.566 38.9741 112.587 39.6039C115.629 39.6039 118.033 40.1261 119.799 41.1706C121.566 42.2151 122.449 43.6897 122.449 45.5944L122.034 49.6956C122.034 50.8016 122.595 51.4313 123.716 51.5849C124.192 51.6617 124.668 51.7232 125.144 51.7693C126.266 51.8614 126.826 52.2915 126.826 53.0595C126.826 54.104 125.521 55.018 122.91 55.8014C120.314 56.5847 117.464 56.9764 114.362 56.9764C108.509 56.9764 105.583 55.2638 105.583 51.8384C105.583 51.0089 105.837 49.8262 106.343 48.2902C106.85 46.7541 107.104 45.725 107.104 45.2027C107.104 44.235 106.704 43.4056 105.906 42.7143C105.107 42.0231 103.801 41.6775 101.989 41.6775ZM177.078 49.4883C177.646 49.4883 177.93 49.7494 177.93 50.2716C177.93 51.3008 175.964 52.6371 172.032 54.2807C169.574 55.3098 166.871 56.1393 163.922 56.7691C163.553 57.7982 163.223 58.7045 162.931 59.4878C162.639 60.2866 162.101 61.1775 161.318 62.1605C160.55 63.1436 159.636 63.9654 158.576 64.6259C157.532 65.2864 156.403 65.8394 155.189 66.2848C153.991 66.7456 152.64 67.0989 151.134 67.3447C148.415 67.8055 145.228 68.0359 141.572 68.0359C137.932 68.0359 135.129 67.6288 133.163 66.8147C131.196 66.0006 130.213 64.8256 130.213 63.2895C130.213 62.3986 130.597 61.5922 131.365 60.8703C132.133 60.1483 133.132 59.5416 134.361 59.0501C135.605 58.5585 137.187 58.1131 139.107 57.7137C142.379 57.0532 146.488 56.5079 151.434 56.0779C151.848 54.7108 152.148 53.5664 152.332 52.6448C147.862 54.3037 143.761 55.1332 140.029 55.1332C135.037 55.1332 132.54 53.482 132.54 50.1795C132.54 47.8601 133.232 44.9954 134.614 41.5854C136.012 38.16 136.711 35.7561 136.711 34.3737L136.688 33.4981C136.688 32.7301 137.433 32.3461 138.923 32.3461L144.291 32.4383L149.153 32.0927C149.552 32.0927 149.852 32.2155 150.051 32.4613C150.251 32.6917 150.351 33.1064 150.351 33.7055C150.351 34.2892 150.12 35.3183 149.66 36.7929C149.214 38.2522 148.723 39.6192 148.185 40.8941C146.726 44.3195 145.996 46.6236 145.996 47.8063C145.996 48.4822 146.242 48.9967 146.733 49.35C147.225 49.7033 147.87 49.8799 148.669 49.8799C150.358 49.8799 151.933 49.4115 153.392 48.4745C155.036 44.0353 156.549 39.097 157.931 33.6594C158.069 33.0911 158.476 32.8069 159.152 32.8069C161.38 32.8069 163.768 32.6917 166.318 32.4613C168.868 32.2155 170.327 32.0927 170.696 32.0927C171.08 32.0927 171.379 32.1848 171.594 32.3691C171.809 32.5535 171.917 32.7301 171.917 32.8991C171.917 33.5596 169.62 40.4794 165.028 53.6586C167.301 53.121 169.413 52.4835 171.364 51.7462C173.33 50.9936 174.666 50.4329 175.373 50.0643C176.095 49.6803 176.663 49.4883 177.078 49.4883ZM149.452 61.8841C149.898 60.7628 150.282 59.7029 150.604 58.7045C143.692 59.58 140.236 61.1775 140.236 63.4969C140.236 64.096 140.543 64.6566 141.158 65.1789C141.787 65.7165 142.417 65.9853 143.047 65.9853C144.445 65.9853 145.75 65.6243 146.964 64.9024C148.177 64.1958 149.007 63.1897 149.452 61.8841ZM182.308 32.3461L193.229 32.0927C193.629 32.0927 193.928 32.2155 194.128 32.4613C194.328 32.6917 194.427 32.9836 194.427 33.3369C194.427 33.6748 194.343 34.2278 194.174 34.9958C198.275 32.7378 201.846 31.6088 204.888 31.6088C206.209 31.6088 207.43 31.9391 208.551 32.5996C209.688 33.26 210.425 34.2354 210.763 35.5257C215.771 32.9144 219.918 31.6088 223.205 31.6088C224.649 31.6088 225.924 32.0159 227.03 32.83C228.212 33.7209 228.804 34.9804 228.804 36.6086C228.804 38.2214 228.52 39.9264 227.951 41.7236C227.398 43.5054 226.838 45.172 226.269 46.7234C225.716 48.2748 225.44 49.3731 225.44 50.0182C225.44 50.648 225.601 51.1241 225.924 51.4467C226.246 51.7693 226.676 51.9306 227.214 51.9306C229.195 51.9306 231.653 51.2393 234.587 49.8569C235.14 49.6111 235.562 49.4883 235.854 49.4883C236.545 49.4883 236.891 49.7647 236.891 50.3177C236.891 50.8092 236.592 51.2777 235.992 51.7232C235.409 52.1533 234.556 52.6295 233.435 53.1517C232.314 53.674 230.924 54.2346 229.265 54.8337C227.621 55.4327 225.686 55.9396 223.458 56.3543C221.231 56.7691 219.242 56.9764 217.491 56.9764C215.755 56.9764 214.457 56.6846 213.597 56.1009C212.737 55.5172 212.307 54.7645 212.307 53.8429C212.307 52.9213 212.599 51.5389 213.182 49.6956C213.781 47.8524 214.38 46.0322 214.979 44.235C215.579 42.4225 215.878 41.1092 215.878 40.2951C215.878 39.4656 215.678 38.8743 215.279 38.521C214.88 38.1523 214.281 37.968 213.482 37.968C212.698 37.968 211.831 38.0909 210.878 38.3366C210.633 40.9633 209.611 44.9646 207.814 50.3408C207.061 52.5987 206.639 54.0119 206.547 54.5802C206.454 55.1485 206.393 55.4788 206.362 55.571C206.332 55.6478 206.278 55.7553 206.201 55.8935C206.063 56.1393 205.771 56.2622 205.326 56.2622C203.114 56.2622 200.925 56.3006 198.759 56.3774C196.609 56.4695 195.218 56.5156 194.589 56.5156C193.974 56.5156 193.667 56.1547 193.667 55.4327C193.667 54.7108 193.905 53.6356 194.381 52.207C194.857 50.7785 195.387 49.3577 195.971 47.9445C197.492 44.1966 198.252 41.401 198.252 39.5578C198.252 38.1907 197.361 37.5072 195.579 37.5072C194.827 37.5072 194.112 37.6301 193.437 37.8758C192.838 39.9188 191.801 43.1521 190.326 47.5759C188.867 51.9997 188.045 54.4881 187.861 55.041C187.615 55.8551 187.177 56.2622 186.547 56.2622L174.705 56.5156C174.536 56.5156 174.344 56.4081 174.129 56.1931C173.929 55.9934 173.829 55.7553 173.829 55.4788C173.829 55.1869 174.152 54.1808 174.797 52.4605C175.457 50.7248 176.179 48.8662 176.963 46.8847C177.746 44.8878 178.46 42.699 179.105 40.3181C179.766 37.9219 180.096 35.9404 180.096 34.3737L180.073 33.4981C180.073 32.7301 180.818 32.3461 182.308 32.3461ZM279.101 49.4883C279.792 49.4883 280.138 49.8031 280.138 50.4329C280.138 50.8784 279.816 51.3392 279.17 51.8154C277.45 53.0749 274.877 54.25 271.452 55.3406C268.042 56.4311 265.062 56.9764 262.512 56.9764C259.962 56.9764 258.081 56.7076 256.867 56.17C255.669 55.6478 254.84 54.7185 254.379 53.3821C253.488 54.2884 252.205 55.1178 250.531 55.8705C248.857 56.6078 247.083 56.9764 245.209 56.9764C243.35 56.9764 241.829 56.8075 240.647 56.4695C239.464 56.147 238.389 55.6478 237.421 54.9719C236.453 54.296 235.685 53.3744 235.117 52.207C234.564 51.0243 234.287 49.6495 234.287 48.0828C234.287 46.516 234.526 44.957 235.002 43.4056C235.478 41.8542 236.207 40.3719 237.191 38.9587C238.189 37.5302 239.379 36.2707 240.762 35.1801C242.144 34.0895 243.819 33.2216 245.785 32.5765C247.766 31.9314 249.894 31.6088 252.167 31.6088C255.899 31.6088 259.002 32.5381 261.475 34.3967C262.335 28.9284 262.766 25.3571 262.766 23.6829L262.743 23.0147C262.743 22.2467 263.487 21.8627 264.977 21.8627L275.3 22.3465C275.668 22.3465 275.96 22.4617 276.175 22.6921C276.39 22.9072 276.498 23.1529 276.498 23.4294C276.498 25.8256 275.23 30.741 272.696 38.1754C270.162 45.5944 268.894 49.6649 268.894 50.3868C268.894 51.1088 268.994 51.6233 269.194 51.9306C269.409 52.2378 269.847 52.3914 270.507 52.3914C271.168 52.3914 272.304 52.1149 273.917 51.5619C275.53 51.0089 276.743 50.5251 277.558 50.1104C278.372 49.6956 278.886 49.4883 279.101 49.4883ZM250.554 51.1241C253.442 51.1241 255.853 48.9122 257.789 44.4885C258.895 42.3687 259.448 40.4948 259.448 38.8666C259.448 37.9757 259.233 37.2921 258.803 36.816C258.388 36.3398 257.551 36.1017 256.291 36.1017C255.047 36.1017 253.68 36.6854 252.19 37.8528C250.7 39.0202 249.494 40.4871 248.573 42.2535C247.666 44.0046 247.213 45.5791 247.213 46.9768C247.213 48.3593 247.52 49.3961 248.135 50.0873C248.749 50.7785 249.556 51.1241 250.554 51.1241ZM284.539 32.3461L295.46 32.0927C295.859 32.0927 296.159 32.2155 296.359 32.4613C296.558 32.6917 296.658 32.9068 296.658 33.1064C296.658 33.3061 296.604 33.6364 296.497 34.0972C296.389 34.558 296.251 35.1187 296.082 35.7791C295.913 36.4243 295.806 36.839 295.76 37.0233C296.958 35.5948 298.455 34.3353 300.252 33.2447C302.05 32.1541 303.632 31.6088 304.999 31.6088C307.902 31.6088 309.353 32.2386 309.353 33.4981C309.353 34.7423 308.962 36.24 308.178 37.991C307.395 39.7268 306.658 40.8711 305.967 41.4241C305.629 41.6698 305.214 41.7927 304.722 41.7927C304.246 41.7927 303.801 41.6391 303.386 41.3319C301.527 39.9495 299.5 39.2583 297.303 39.2583C296.458 39.2583 295.721 39.3197 295.091 39.4426C294.492 41.5009 293.54 44.5269 292.234 48.5206C290.929 52.4989 290.207 54.7185 290.069 55.1793C289.838 55.9012 289.408 56.2622 288.778 56.2622C286.551 56.2622 284.163 56.3774 281.613 56.6078C279.063 56.8535 277.596 56.9764 277.212 56.9764C276.843 56.9764 276.551 56.8689 276.336 56.6539C276.137 56.4542 276.037 56.2161 276.037 55.9396C276.037 55.6478 276.359 54.6186 277.005 52.8522C277.665 51.0704 278.387 49.158 279.17 47.1151C279.969 45.0722 280.691 42.8295 281.336 40.3873C281.997 37.945 282.327 35.9404 282.327 34.3737L282.304 33.4981C282.304 32.7301 283.049 32.3461 284.539 32.3461ZM346.241 49.4883C346.779 49.4883 347.048 49.7417 347.048 50.2486C347.048 50.7401 346.679 51.2009 345.942 51.631C345.22 52.0458 344.321 52.4989 343.246 52.9904C342.171 53.4666 340.689 54.0349 338.799 54.6954C334.452 56.2161 329.545 56.9764 324.076 56.9764C313.693 56.9764 308.501 53.7815 308.501 47.3916C308.501 44.2734 309.484 41.5086 311.45 39.097C313.432 36.67 316.081 34.8191 319.399 33.5442C322.717 32.2539 326.334 31.6088 330.251 31.6088C334.168 31.6088 337.033 32.2155 338.845 33.429C340.673 34.6425 341.587 36.3091 341.587 38.4288C341.587 40.61 340.712 42.3918 338.961 43.7742C337.225 45.1566 334.913 46.1858 332.025 46.8616C329.122 47.5375 325.797 48.0137 322.049 48.2902C322.295 50.671 324 52.1533 327.164 52.737C327.978 52.8752 328.838 52.9443 329.744 52.9443C333.339 52.9443 338.523 51.8614 345.297 49.6956C345.711 49.5574 346.026 49.4883 346.241 49.4883ZM322.072 45.7557C324.745 45.0184 326.857 43.8894 328.408 42.3687C329.959 40.8481 330.735 39.0125 330.735 36.8621C330.735 36.2937 330.551 35.8406 330.182 35.5027C329.813 35.1647 329.253 34.9958 328.5 34.9958C327.763 34.9958 326.987 35.3183 326.173 35.9635C325.374 36.6086 324.698 37.4534 324.145 38.4979C322.978 40.6637 322.287 43.083 322.072 45.7557ZM359.328 56.9534C358.944 56.9688 358.376 56.9764 357.623 56.9764C354.091 56.9764 350.757 56.6462 347.624 55.9857C344.506 55.3252 342.662 54.5572 342.094 53.6816C341.91 53.4051 341.818 53.0595 341.818 52.6448C341.818 52.2301 342.309 51.5696 343.292 50.6633C344.275 49.7417 344.951 49.2809 345.32 49.2809C345.688 49.2809 346.065 49.4191 346.449 49.6956C346.848 49.9568 347.286 50.2793 347.762 50.6633C348.238 51.0473 348.768 51.4313 349.352 51.8154C350.75 52.737 352.432 53.1978 354.398 53.1978C355.181 53.1978 355.811 52.9981 356.287 52.5987C356.779 52.1994 357.024 51.7002 357.024 51.1011C357.024 50.4867 356.817 49.9568 356.402 49.5113C356.003 49.0659 355.473 48.6818 354.812 48.3593C354.167 48.0213 353.453 47.6911 352.67 47.3685C351.886 47.0306 351.095 46.6696 350.297 46.2856C349.513 45.8863 348.791 45.4562 348.131 44.9954C346.671 43.9662 345.942 42.6913 345.942 41.1706C345.942 39.6346 346.403 38.3059 347.324 37.1846C348.261 36.0633 349.436 35.1647 350.849 34.4889C352.263 33.813 353.86 33.2447 355.642 32.7839C358.775 32.0005 361.732 31.6088 364.513 31.6088C367.308 31.6088 369.904 31.7547 372.3 32.0466C374.712 32.3231 376.371 32.7378 377.277 33.2908C377.523 33.429 377.646 33.7977 377.646 34.3967C377.646 34.9804 377.438 35.8252 377.024 36.9312C376.609 38.0218 376.079 39.0355 375.434 39.9725C374.804 40.8941 374.236 41.355 373.729 41.355C373.529 41.355 373.36 41.2705 373.222 41.1015C371.763 39.3504 370.342 38.0064 368.959 37.0694C367.592 36.1171 366.102 35.6409 364.489 35.6409C363.261 35.6409 362.377 35.8943 361.84 36.4012C361.318 36.8928 361.056 37.4073 361.056 37.945C361.056 38.4826 361.348 38.9971 361.932 39.4887C362.531 39.9802 363.268 40.4257 364.144 40.825C365.035 41.2244 365.995 41.6929 367.024 42.2305C368.068 42.7527 369.028 43.2904 369.904 43.8433C370.795 44.3809 371.532 45.0645 372.116 45.8939C372.715 46.708 373.014 47.7372 373.014 48.9814C373.014 50.2256 372.561 51.439 371.655 52.6218C375.464 51.8538 378.444 50.9091 380.595 49.7878C380.963 49.5881 381.278 49.4883 381.539 49.4883C382.123 49.4883 382.415 49.7801 382.415 50.3638C382.415 50.8553 382.115 51.3085 381.516 51.7232C380.917 52.1226 379.927 52.6141 378.544 53.1978C377.162 53.7661 375.518 54.3421 373.614 54.9258C369.174 56.2775 364.413 56.9534 359.328 56.9534ZM383.728 54.5111C380.841 52.7754 379.397 50.1411 379.397 46.6082C379.397 44.765 379.773 43.0369 380.526 41.4241C381.294 39.7959 382.338 38.3904 383.659 37.2077C384.996 36.0249 386.547 35.0111 388.313 34.1663C391.846 32.4613 395.894 31.6088 400.456 31.6088C409.426 31.6088 414.272 34.4505 414.994 40.1338C416.07 40.4871 417.175 40.6637 418.312 40.6637C419.464 40.6637 420.424 40.5793 421.192 40.4103C421.96 40.2413 422.682 39.9879 423.358 39.65C424.049 39.312 424.541 39.1431 424.833 39.1431C425.416 39.1431 425.708 39.4272 425.708 39.9956C425.708 40.5639 425.255 41.1553 424.349 41.7697C422.644 42.9371 420.386 43.5208 417.575 43.5208C416.515 43.5208 415.655 43.467 414.994 43.3595C414.503 47.2303 412.506 50.4483 409.004 53.0135C407.329 54.2423 405.271 55.21 402.829 55.9166C400.402 56.6231 397.883 56.9764 395.272 56.9764C392.676 56.9764 390.448 56.7691 388.59 56.3543C386.731 55.955 385.111 55.3406 383.728 54.5111ZM392.092 48.6358C392.092 51.4774 393.129 52.8983 395.202 52.8983C396.523 52.8983 397.752 52.1763 398.889 50.7324C400.041 49.2886 400.932 47.4991 401.562 45.364C402.207 43.2289 402.529 41.0554 402.529 38.8435C402.529 36.6163 401.754 35.5027 400.202 35.5027C398.851 35.5027 397.537 36.1401 396.262 37.415C395.003 38.6899 393.989 40.3489 393.221 42.3918C392.468 44.4193 392.092 46.5007 392.092 48.6358ZM426.146 32.3461L437.067 32.0927C437.466 32.0927 437.766 32.2155 437.966 32.4613C438.165 32.6917 438.265 32.9068 438.265 33.1064C438.265 33.3061 438.211 33.6364 438.104 34.0972C437.996 34.558 437.858 35.1187 437.689 35.7791C437.52 36.4243 437.413 36.839 437.367 37.0233C438.565 35.5948 440.062 34.3353 441.86 33.2447C443.657 32.1541 445.239 31.6088 446.606 31.6088C449.509 31.6088 450.961 32.2386 450.961 33.4981C450.961 34.7423 450.569 36.24 449.785 37.991C449.002 39.7268 448.265 40.8711 447.574 41.4241C447.236 41.6698 446.821 41.7927 446.329 41.7927C445.853 41.7927 445.408 41.6391 444.993 41.3319C443.134 39.9495 441.107 39.2583 438.91 39.2583C438.066 39.2583 437.328 39.3197 436.698 39.4426C436.099 41.5009 435.147 44.5269 433.841 48.5206C432.536 52.4989 431.814 54.7185 431.676 55.1793C431.445 55.9012 431.015 56.2622 430.385 56.2622C428.158 56.2622 425.77 56.3774 423.22 56.6078C420.67 56.8535 419.203 56.9764 418.819 56.9764C418.45 56.9764 418.159 56.8689 417.943 56.6539C417.744 56.4542 417.644 56.2161 417.644 55.9396C417.644 55.6478 417.967 54.6186 418.612 52.8522C419.272 51.0704 419.994 49.158 420.777 47.1151C421.576 45.0722 422.298 42.8295 422.943 40.3873C423.604 37.945 423.934 35.9404 423.934 34.3737L423.911 33.4981C423.911 32.7301 424.656 32.3461 426.146 32.3461Z" fill="#1D2E8C"/>
<defs>
<clipPath id="clip0_43_527">
<rect width="68.4211" height="68.4211" fill="white" transform="translate(0 11.6953) rotate(-9.84198)"/>
</clipPath>
<clipPath id="clip1_43_527">
<rect width="68.4211" height="68.4211" fill="white" transform="translate(-0.814194 15.3088) rotate(-9.84198)"/>
</clipPath>
</defs>
</svg>
