<svg xmlns="http://www.w3.org/2000/svg" width="175" height="35" viewBox="0 0 175 35" fill="none">
  <mask id="mask0_69_712" style="mask-type:luminance" maskUnits="userSpaceOnUse" x="0" y="0" width="175" height="35">
    <path d="M174.413 0H0V34.2106H174.413V0Z" fill="white"/>
  </mask>
  <g mask="url(#mask0_69_712)">
    <path d="M6.18533 28.598C5.30716 28.598 4.42898 28.5217 3.55081 28.2926C2.86354 28.1016 2.21446 27.758 1.67992 27.2998C1.1072 26.7653 0.687201 26.1162 0.458111 25.3907C0.114477 24.3599 -0.0382489 23.2908 -6.7261e-05 22.2218V0.00012207H5.34534V5.65098H10.8817V10.3091H5.34534V21.1144C5.34534 23.0235 6.33805 24.0544 8.17077 24.0544C9.04895 24.0926 9.96529 23.9399 10.8053 23.6727V27.5671C10.1944 27.8725 9.54529 28.1016 8.9344 28.2544C8.01804 28.4835 7.10169 28.598 6.18533 28.598Z" fill="#04060C"/>
    <path d="M91.7117 28.5981C86.7863 28.5981 82.1664 25.7727 80.4482 21.0763C78.8064 16.4182 80.2955 11.2255 84.19 8.171C88.2372 5.19285 93.659 4.81103 98.0116 7.29283C102.25 9.77462 104.426 14.7 103.433 19.5108C102.441 24.2836 98.317 27.8344 93.5444 28.4836C92.9717 28.5599 92.3608 28.5981 91.7117 28.5981ZM91.7117 9.85098C88.7717 9.85098 86.1754 11.7982 85.3735 14.6237C84.5336 17.4109 85.2209 20.6182 87.4736 22.5654C89.6881 24.4363 92.8954 24.7035 95.3772 23.2144C97.8589 21.6872 98.8898 18.5564 98.3935 15.7692C97.8589 12.4855 95.0716 9.85098 91.7117 9.85098Z" fill="#04060C"/>
    <path d="M153.642 5.651V10.3091H168.456L155.284 34.2107H161.394L174.413 9.85096V5.651H153.642Z" fill="#04060C"/>
    <path d="M116.453 5.651H106.412V28.598H111.757V10.3091H116.644C117.79 10.271 118.897 10.6909 119.737 11.4928C121.226 13.0582 121.226 16.6091 121.226 19.3963V28.598H126.571V15.6928C126.533 6.94917 120.234 5.651 116.453 5.651Z" fill="#04060C"/>
    <path d="M20.6561 5.651H14.6998V28.598H20.0453V10.3091H25.6197L20.6561 5.651Z" fill="#04060C"/>
    <path d="M45.5889 26.0399C44.7107 26.9944 43.6798 27.7962 42.5726 28.4072C41.198 29.1326 39.7089 29.4762 38.1435 29.4381C36.8454 29.4762 35.5854 29.0945 34.5927 28.2926C33.6381 27.4908 33.1036 26.3071 33.1418 25.0853V25.009C33.1036 23.5962 33.8289 22.2981 35.0126 21.5726C36.1581 20.8472 37.7616 20.4654 39.7852 20.4654H40.7016L41.5417 17.0672L34.8599 10.3091H47.727V5.651H28.2545V9.85096L35.5854 16.8H35.5089C34.5162 16.9527 33.5235 17.22 32.5691 17.6018C31.6908 17.9455 30.8509 18.4418 30.1254 19.0527C29.4 19.7018 28.8272 20.4654 28.4073 21.3435C27.9491 22.4127 27.72 23.5581 27.7581 24.7417V24.8181C27.7581 26.1162 27.9872 27.3763 28.4836 28.5598C28.9418 29.6672 29.6672 30.698 30.5454 31.538C31.4999 32.4162 32.6072 33.0652 33.8289 33.4853C35.2417 33.9816 36.7308 34.2107 38.2198 34.1725C40.8926 34.1725 43.1453 33.7144 45.0162 32.7598C46.6198 31.958 48.0707 30.8508 49.2925 29.5144L45.5889 26.0399Z" fill="#04060C"/>
    <path d="M132.489 26.0399C133.367 26.9944 134.398 27.7962 135.543 28.4072C136.919 29.1326 138.408 29.4762 139.973 29.4381C141.271 29.4762 142.531 29.0945 143.524 28.2926C144.478 27.4908 145.013 26.3071 144.975 25.0853V25.009C145.013 23.5962 144.287 22.2981 143.104 21.5726C141.959 20.8472 140.354 20.4654 138.331 20.4654H137.414L136.575 17.0672L143.218 10.3091H130.352V5.651H149.823V9.85096L142.493 16.8H142.531C143.524 16.9527 144.516 17.22 145.472 17.6018C146.349 17.9455 147.189 18.4418 147.915 19.0527C148.64 19.7018 149.251 20.5036 149.632 21.3817C150.091 22.4509 150.32 23.5962 150.282 24.7799V24.8562C150.282 26.1545 150.052 27.4145 149.557 28.598C149.098 29.7053 148.372 30.7362 147.495 31.5763C146.54 32.4544 145.433 33.1035 144.211 33.5234C142.798 34.0198 141.31 34.2489 139.82 34.2107C137.148 34.2107 134.895 33.7525 133.024 32.798C131.421 31.9962 129.97 30.889 128.747 29.5526L132.489 26.0399Z" fill="#04060C"/>
    <path d="M57.7685 28.598C56.8903 28.598 56.0122 28.5217 55.134 28.2926C54.4467 28.1016 53.7977 27.758 53.2631 27.2998C52.7285 26.7653 52.2704 26.1162 52.0413 25.3907C51.6976 24.3599 51.545 23.2908 51.5831 22.2218V0.00012207H56.9285V5.65098H62.4649V10.3091H56.9285V21.1144C56.9285 23.0235 57.9212 24.0544 59.754 24.0544C60.6321 24.0926 61.5485 23.9399 62.3884 23.6727V27.5671C61.7776 27.8344 61.1666 28.0635 60.5176 28.2162C59.6012 28.4835 58.6848 28.598 57.7685 28.598Z" fill="#04060C"/>
    <path d="M72.4303 28.598C71.5521 28.598 70.674 28.5217 69.7958 28.2926C69.1085 28.1016 68.4595 27.758 67.925 27.2998C67.3904 26.7653 66.9322 26.1162 66.7031 25.3907C66.3594 24.3599 66.2068 23.2908 66.2449 22.2218V0.00012207H71.5904V5.65098H77.1267V10.3091H71.6286V21.1144C71.6286 23.0235 72.6213 24.0544 74.454 24.0544C75.3322 24.0926 76.2485 23.9399 77.0885 23.6727V27.5671C76.5157 27.8344 75.9049 28.0635 75.2557 28.2162C74.3012 28.4835 73.3849 28.598 72.4303 28.598Z" fill="#04060C"/>
  </g>
</svg>