<svg width="30" height="30" viewBox="0 0 30 30" fill="none" xmlns="http://www.w3.org/2000/svg">
<rect x="0.416667" y="0.416667" width="29.1667" height="29.1667" rx="4.43627" fill="#F5F5F5"/>
<rect x="0.416667" y="0.416667" width="29.1667" height="29.1667" rx="4.43627" stroke="#595959" stroke-width="0.833333"/>
<g clip-path="url(#clip0_129_843)">
<rect width="21.1765" height="21.1765" transform="translate(4.41187 4.41176)" fill="#F5F5F5"/>
<path d="M14.1605 7.86522C14.0996 7.91599 14.0434 7.97217 13.9926 8.03309L8.09984 15.1045C7.63625 15.6608 7.71141 16.4876 8.26771 16.9511L8.37231 17.0298C8.58841 17.1761 8.8442 17.255 9.10711 17.255H11.2529L11.2537 21.1886C11.2537 21.9127 11.8407 22.4998 12.5649 22.4998H17.435L17.5425 22.4954C18.2163 22.4407 18.7461 21.8765 18.7461 21.1886L18.7454 17.255H20.8927C21.6169 17.255 22.2039 16.668 22.2039 15.9438C22.2039 15.6371 22.0963 15.3401 21.9 15.1045L16.0072 8.03309C15.5693 7.5077 14.8076 7.41147 14.2556 7.79293L14.1605 7.86522ZM15.1438 8.75258L21.0366 15.824C21.0647 15.8576 21.08 15.9 21.08 15.9438C21.08 16.0473 20.9961 16.1312 20.8927 16.1312H18.1842C17.8739 16.1312 17.6223 16.3828 17.6223 16.6931V21.1886C17.6223 21.292 17.5384 21.3759 17.435 21.3759H12.5649C12.4614 21.3759 12.3775 21.292 12.3775 21.1886V16.6931C12.3775 16.3828 12.126 16.1312 11.8156 16.1312H9.10711C9.06329 16.1312 9.02086 16.1158 8.9872 16.0878C8.90773 16.0215 8.89699 15.9034 8.96322 15.824L14.856 8.75258C14.8632 8.74388 14.8713 8.73585 14.88 8.7286C14.9594 8.66237 15.0776 8.67311 15.1438 8.75258Z" fill="#212121"/>
</g>
<defs>
<clipPath id="clip0_129_843">
<rect width="21.1765" height="21.1765" fill="white" transform="translate(4.41187 4.41176)"/>
</clipPath>
</defs>
</svg>
