<svg width="25" height="25" viewBox="0 0 25 25" fill="none" xmlns="http://www.w3.org/2000/svg">
<g clip-path="url(#clip0_18_300)">
<path d="M18.5421 8.99808L14.0904 4.54639C14.388 4.53326 14.6944 4.5245 15.0096 4.5245C19.759 4.5245 22.788 5.93398 22.788 6.90574C22.788 7.57108 21.2954 8.51657 18.5421 8.9937V8.99808ZM12.5496 19.648L11.5647 18.6631L17.741 12.4911L18.7259 13.476L12.5496 19.648ZM9.50738 16.6058L15.6837 10.4338L16.6642 11.4187L10.4879 17.5907L9.50738 16.6058ZM7.44568 14.5485L13.622 8.3765L14.6069 9.35701L8.43057 15.529L7.44568 14.5441V14.5485ZM4.36408 8.25394C3.73813 7.78119 3.43172 6.99766 3.56304 6.22726C3.69436 5.45686 4.25027 4.82216 4.99441 4.59016C5.73855 4.35817 6.5571 4.55514 7.10863 5.11106C6.50895 5.60131 6.15439 6.17911 6.15439 6.85321C6.15439 7.33033 6.34699 7.80308 6.70592 8.21892L7.73458 7.32158C7.59013 7.15524 7.51572 6.99766 7.51572 6.85321C7.51572 6.66499 7.64266 6.46363 7.86152 6.25353C8.03662 6.94513 7.86152 7.71116 7.32312 8.24956C6.92917 8.64352 6.39952 8.86238 5.8436 8.86238C5.28769 8.86238 4.75366 8.63914 4.36408 8.24956V8.25394ZM24.18 6.90574C24.18 4.03425 18.0168 2.8305 12.8341 3.29011L11.696 2.14764C11.4684 1.92003 10.7461 1.51294 10.4266 1.51294L3.51052 1.51294C2.93709 1.51294 0.586498 3.85478 0.586498 4.43258V11.3487C0.586498 11.6726 0.997961 12.3948 1.22558 12.6268L12.1688 23.57C12.6459 24.0428 13.4207 24.0384 13.889 23.57L22.6392 14.8155C23.1119 14.3427 23.1119 13.5636 22.6392 13.0952L19.7196 10.1756C22.5298 9.52772 24.18 8.34148 24.18 6.90574Z" fill="#1D2E8C"/>
</g>
<defs>
<clipPath id="clip0_18_300">
<rect width="23.5935" height="23.5935" fill="white" transform="translate(0.586493 0.921997)"/>
</clipPath>
</defs>
</svg>
