<svg width="25" height="24" viewBox="0 0 25 24" fill="none" xmlns="http://www.w3.org/2000/svg">
<g clip-path="url(#clip0_18_312)">
<path d="M22.7518 12.1801C21.7293 11.1576 20.2811 10.6165 18.8368 10.6165C17.9933 10.6165 17.1499 10.7995 16.4257 11.1576L13.6526 5.98132C13.6526 5.98132 13.7123 5.98132 13.7123 5.92164L13.772 5.86196C13.772 5.86196 13.772 5.80228 13.8316 5.80228V5.7426V5.62324C13.8316 5.56356 13.772 5.50388 13.772 5.4442C13.8316 5.1458 13.772 4.9031 13.7123 4.6604C13.6526 4.42168 13.4696 4.23867 13.2905 4.23867L12.3237 4.11931H12.2044C12.1447 4.11931 12.085 4.17899 12.085 4.17899C11.9657 4.23867 11.8423 4.362 11.8423 4.47739C11.8423 4.59675 11.902 4.72008 12.085 4.77976L12.2044 4.9588L12.3237 5.32086C12.2641 5.44022 12.2641 5.55958 12.2641 5.68292L12.5664 6.2837L12.8688 6.88448C12.2044 7.3659 10.7004 8.4481 9.43522 9.17221L9.37554 9.23189V10.1947L9.55856 10.1351C10.4617 9.65363 11.4882 8.98919 12.272 8.4481C11.8503 9.04887 11.4285 9.95203 10.8835 10.9745L10.8238 11.0939C10.7641 11.2133 10.7044 11.3963 10.5811 11.5156C10.4617 11.635 10.2827 11.7583 10.0997 11.9374C9.92062 12.1204 9.80126 12.2358 9.7376 12.3591L9.55856 12.5421C9.49888 12.6018 9.31586 12.7212 9.31586 12.7212V12.7809C9.31586 12.7809 9.31586 12.8405 9.37554 12.9002C9.37554 12.9599 9.43522 13.0832 9.43522 13.1429C9.43522 13.2026 9.4949 13.322 9.4949 13.3856V13.5647L9.55458 15.0686L9.85298 14.6469L10.215 14.1058C10.7561 13.322 11.4206 12.2994 11.8423 11.456C12.1407 10.7955 12.5068 10.0714 12.8648 9.53029C13.0479 9.22791 13.2269 8.98919 13.3463 8.7465C13.4656 8.62714 13.5293 8.5038 13.6486 8.38444L15.5146 11.6947C14.0664 12.7172 13.2269 14.2848 13.2269 15.9678C13.2269 17.412 13.768 18.7369 14.8542 19.6998C15.8807 20.7223 17.3249 21.2634 18.7732 21.2634C21.8447 21.2634 24.3154 18.916 24.3154 15.9678C24.3751 14.5235 23.834 13.1986 22.7518 12.1761V12.1801ZM18.8368 20.1852C17.6515 20.1799 16.5113 19.7298 15.6419 18.9239C15.2255 18.5411 14.8928 18.0763 14.6647 17.5586C14.4367 17.041 14.3183 16.4817 14.317 15.9161C14.317 14.5912 14.9815 13.3896 16.0637 12.5461L17.9933 15.9757V16.1548C17.9933 16.5168 18.2957 16.8192 18.6578 16.8192C19.0198 16.8192 19.3222 16.5168 19.3222 16.1548C19.3222 15.8564 19.0795 15.554 18.7175 15.4943L16.9111 12.0647C17.5119 11.7623 18.1764 11.643 18.8408 11.643C20.0463 11.643 21.1922 12.1244 22.0357 12.9042C22.4526 13.2874 22.7856 13.7529 23.0137 14.2713C23.2417 14.7897 23.3598 15.3497 23.3606 15.9161C23.3009 18.2635 21.3115 20.1891 18.8408 20.1891L18.8368 20.1852ZM4.30274 15.7529L3.98843 14.9134H3.42743C3.42743 13.4732 3.36377 9.70138 3.36377 9.52234C3.36377 9.3433 3.67809 4.19092 3.67809 3.23206C3.67809 2.26923 2.55213 1.97083 2.55213 1.97083C2.55213 1.97083 1.42616 2.20955 1.42616 3.1684C1.42616 4.12726 1.7365 9.27964 1.7365 9.45868C1.7365 9.63772 1.7365 13.4135 1.67284 14.8498H1.04819L0.737854 15.7529C0.737854 15.8723 0.737854 15.9916 0.865171 16.0513H0.92883C0.992489 16.0513 1.11583 15.9916 1.11583 15.932L1.30282 15.3909H1.61714V15.4505C1.61714 15.8683 1.43014 21.14 1.36648 21.4424C1.36648 21.7408 1.36648 22.1626 1.4938 22.2222C1.74446 22.2819 2.30545 22.3416 2.55611 22.3416C2.80676 22.3416 3.43141 22.2819 3.49507 22.2222C3.61841 22.1626 3.68207 21.7448 3.61841 21.4424C3.61841 21.144 3.43141 15.8723 3.36775 15.4505V15.3909H3.55475L3.86907 15.932C3.86907 15.9916 3.9924 16.0513 4.05606 16.0513H4.11574C4.30274 16.0513 4.3664 15.932 4.30274 15.7529ZM2.67547 15.8723H2.55213H2.42481C2.36115 15.8723 2.17415 14.9731 2.11049 14.7941C2.11049 14.5553 2.54815 14.5553 2.54815 14.5553C2.54815 14.5553 2.9858 14.5553 2.9858 14.7941C2.9858 15.0328 2.73515 15.8723 2.67149 15.8723H2.67547ZM3.04946 11.6788C2.9858 11.7385 2.92612 11.6788 2.86246 11.6191C2.73912 11.4997 2.61181 11.4997 2.61181 11.4997C2.61181 11.4997 2.48449 11.4997 2.29749 11.6191C2.23383 11.6788 2.17415 11.7385 2.11049 11.6788C1.98716 11.6191 1.9235 11.4997 1.98716 11.3804C1.98716 11.3207 2.11049 11.2013 2.11049 11.2013C2.11049 11.2013 2.17415 11.0223 2.17415 10.9029C2.17415 10.6642 2.36115 10.4852 2.48449 10.4852C2.61181 10.4852 2.7988 10.6642 2.7988 10.9029C2.7988 11.0223 2.86246 11.2013 2.86246 11.2013C2.86246 11.2013 2.92612 11.3207 2.98978 11.3804C3.17678 11.4401 3.1171 11.6191 3.05344 11.6788H3.04946ZM8.24162 15.7529L7.92731 14.9134H7.36631C7.36631 13.4732 7.30266 9.70138 7.30266 9.52234C7.30266 9.28362 7.61697 4.13124 7.61697 3.17238C7.61697 2.20955 6.49101 1.97083 6.49101 1.97083C6.49101 1.97083 5.36504 2.20955 5.36504 3.1684C5.36504 4.12726 5.67538 9.27964 5.67538 9.45868C5.67538 9.63772 5.67538 13.4135 5.61172 14.8498H4.99105L4.67673 15.7489C4.67673 15.8683 4.67673 15.9877 4.80405 16.0473H4.86771C4.93137 16.0473 5.05471 15.9877 5.05471 15.928L5.24171 15.3869H5.55602V15.4466C5.55602 15.8643 5.36902 21.1361 5.30536 21.4384C5.30536 21.7368 5.30536 22.1586 5.43268 22.2183C5.56 22.2779 6.12099 22.3376 6.37165 22.3376C6.6223 22.3376 7.24695 22.2779 7.31061 22.2183C7.43793 22.1586 7.49761 21.7408 7.43793 21.4384C7.43793 21.14 7.25093 15.8683 7.18727 15.4466V15.3869H7.62493L7.81192 15.928C7.81192 15.9877 7.93526 16.0473 7.99892 16.0473H8.06258C8.1899 16.0473 8.24958 15.928 8.24958 15.7489L8.24162 15.7529ZM6.61435 15.8723H6.49101H6.36369C6.30003 15.8723 6.11303 14.9731 6.04937 14.7941C6.04937 14.5553 6.48703 14.5553 6.48703 14.5553C6.48703 14.5553 6.92468 14.5553 6.92468 14.7941C6.86102 15.0328 6.67403 15.8723 6.61037 15.8723H6.61435ZM6.98834 11.6788C6.92468 11.7385 6.865 11.6788 6.80134 11.6191C6.678 11.4997 6.55069 11.4997 6.55069 11.4997C6.55069 11.4997 6.42337 11.4997 6.30003 11.6191C6.23637 11.6788 6.17271 11.7385 6.11303 11.6788C6.04937 11.6191 5.98572 11.4997 6.04937 11.3804C6.04937 11.3207 6.17669 11.2013 6.17669 11.2013C6.17669 11.2013 6.24035 11.0223 6.24035 10.9029C6.24035 10.6642 6.42735 10.4852 6.55467 10.4852C6.68198 10.4852 6.86898 10.6642 6.86898 10.9029C6.86898 11.0223 6.93264 11.2013 6.93264 11.2013C6.93264 11.2013 6.9963 11.3207 7.05996 11.3804C7.12361 11.4401 7.05996 11.6191 6.9963 11.6788H6.98834Z" fill="#1D2E8C"/>
</g>
<defs>
<clipPath id="clip0_18_312">
<rect width="23.5935" height="23.5935" fill="white" transform="translate(0.733887 0.359375)"/>
</clipPath>
</defs>
</svg>
