<svg width="24" height="25" viewBox="0 0 24 25" fill="none" xmlns="http://www.w3.org/2000/svg">
<g clip-path="url(#clip0_18_295)">
<path d="M23.3489 11.3443C23.6433 11.5972 23.6764 12.0409 23.4235 12.3394C23.1706 12.638 22.7269 12.667 22.4283 12.4141L20.9522 11.1411V21.5612C20.9522 21.951 20.6371 22.2661 20.2473 22.2661H14.4173V15.0886H9.17617V22.2661H3.34622C2.95645 22.2661 2.64131 21.951 2.64131 21.5612V11.1535L1.16517 12.4099C0.870766 12.6629 0.422945 12.6255 0.17001 12.3311C-0.082926 12.0326 -0.0456076 11.5889 0.248793 11.336L11.3821 1.83639C11.6475 1.61248 12.0331 1.61248 12.2985 1.83639L23.3489 11.3443ZM20.2473 7.12316C19.8575 7.12316 19.5424 6.80802 19.5424 6.41826V5.1826H18.3109C17.9211 5.1826 17.606 4.86747 17.606 4.4777C17.606 4.08793 17.9211 3.7728 18.3109 3.7728H20.2473C20.6371 3.7728 20.9522 4.08793 20.9522 4.4777V6.41411C20.9522 6.80388 20.6371 7.11901 20.2473 7.11901V7.12316Z" fill="#1D2E8C"/>
</g>
<defs>
<clipPath id="clip0_18_295">
<rect width="23.5935" height="23.5935" fill="white" transform="translate(0 0.484619)"/>
</clipPath>
</defs>
</svg>
