<svg width="20" height="18" viewBox="0 0 20 18" fill="none" xmlns="http://www.w3.org/2000/svg">
<path d="M0.0965712 0.172241C-0.208984 0.172241 -0.458984 0.422241 -0.458984 0.727797C-0.458984 1.03335 -0.208984 1.28335 0.0965712 1.28335H1.41254C1.67643 1.28335 1.9056 1.46738 1.95768 1.7278L4.00282 11.7278C4.21463 12.7625 5.12435 13.5056 6.1799 13.5056H16.7632C17.0688 13.5056 17.3188 13.2556 17.3188 12.95C17.3188 12.6445 17.0688 12.3945 16.7632 12.3945H6.1799C5.65213 12.3945 5.19727 12.0229 5.08963 11.5056L4.81879 10.1722H15.7389C16.7598 10.1722 17.6487 9.4778 17.8952 8.48821L19.3535 2.6653C19.5271 1.96391 18.9993 1.28335 18.2771 1.28335H2.98199C2.75282 0.62363 2.12435 0.172241 1.41254 0.172241H0.0965712ZM3.22504 2.39446H18.2737L16.8188 8.22085C16.6938 8.71391 16.2493 9.06113 15.7389 9.06113H4.58963L3.22504 2.39446ZM5.37435 16.0056C5.37435 15.7846 5.46215 15.5726 5.61843 15.4163C5.77471 15.26 5.98667 15.1722 6.20768 15.1722C6.4287 15.1722 6.64066 15.26 6.79694 15.4163C6.95322 15.5726 7.04102 15.7846 7.04102 16.0056C7.04102 16.2266 6.95322 16.4386 6.79694 16.5948C6.64066 16.7511 6.4287 16.8389 6.20768 16.8389C5.98667 16.8389 5.77471 16.7511 5.61843 16.5948C5.46215 16.4386 5.37435 16.2266 5.37435 16.0056ZM8.15213 16.0056C8.15213 15.7502 8.10183 15.4974 8.00412 15.2615C7.9064 15.0256 7.76317 14.8112 7.58261 14.6306C7.40205 14.4501 7.1877 14.3069 6.95179 14.2091C6.71588 14.1114 6.46303 14.0611 6.20768 14.0611C5.95233 14.0611 5.69949 14.1114 5.46358 14.2091C5.22767 14.3069 5.01331 14.4501 4.83275 14.6306C4.65219 14.8112 4.50897 15.0256 4.41125 15.2615C4.31353 15.4974 4.26324 15.7502 4.26324 16.0056C4.26324 16.2609 4.31353 16.5138 4.41125 16.7497C4.50897 16.9856 4.65219 17.1999 4.83275 17.3805C5.01331 17.5611 5.22767 17.7043 5.46358 17.802C5.69949 17.8997 5.95233 17.95 6.20768 17.95C6.46303 17.95 6.71588 17.8997 6.95179 17.802C7.1877 17.7043 7.40205 17.5611 7.58261 17.3805C7.76317 17.1999 7.9064 16.9856 8.00412 16.7497C8.10183 16.5138 8.15213 16.2609 8.15213 16.0056ZM15.0966 15.1722C15.3176 15.1722 15.5295 15.26 15.6858 15.4163C15.8421 15.5726 15.9299 15.7846 15.9299 16.0056C15.9299 16.2266 15.8421 16.4386 15.6858 16.5948C15.5295 16.7511 15.3176 16.8389 15.0966 16.8389C14.8756 16.8389 14.6636 16.7511 14.5073 16.5948C14.351 16.4386 14.2632 16.2266 14.2632 16.0056C14.2632 15.7846 14.351 15.5726 14.5073 15.4163C14.6636 15.26 14.8756 15.1722 15.0966 15.1722ZM15.0966 17.95C15.6123 17.95 16.1068 17.7452 16.4715 17.3805C16.8362 17.0159 17.041 16.5213 17.041 16.0056C17.041 15.4899 16.8362 14.9953 16.4715 14.6306C16.1068 14.266 15.6123 14.0611 15.0966 14.0611C14.5809 14.0611 14.0863 14.266 13.7216 14.6306C13.357 14.9953 13.1521 15.4899 13.1521 16.0056C13.1521 16.5213 13.357 17.0159 13.7216 17.3805C14.0863 17.7452 14.5809 17.95 15.0966 17.95Z" fill="#1D2E8C"/>
</svg>
