<svg width="15" height="16" viewBox="0 0 15 16" fill="none" xmlns="http://www.w3.org/2000/svg">
<path d="M10.541 4.06116C10.541 3.66719 10.4634 3.27708 10.3127 2.91311C10.1619 2.54913 9.94091 2.21841 9.66234 1.93984C9.38376 1.66126 9.05304 1.44028 8.68907 1.28952C8.32509 1.13875 7.93498 1.06116 7.54102 1.06116C7.14705 1.06116 6.75694 1.13875 6.39297 1.28952C6.02899 1.44028 5.69827 1.66126 5.4197 1.93984C5.14112 2.21841 4.92014 2.54913 4.76938 2.91311C4.61861 3.27708 4.54102 3.66719 4.54102 4.06116C4.54102 4.45512 4.61861 4.84523 4.76938 5.20921C4.92014 5.57318 5.14112 5.9039 5.4197 6.18248C5.69827 6.46105 6.02899 6.68203 6.39297 6.8328C6.75694 6.98356 7.14705 7.06116 7.54102 7.06116C7.93498 7.06116 8.32509 6.98356 8.68907 6.8328C9.05304 6.68203 9.38376 6.46105 9.66234 6.18248C9.94091 5.9039 10.1619 5.57318 10.3127 5.20921C10.4634 4.84523 10.541 4.45512 10.541 4.06116ZM3.54102 4.06116C3.54102 3.00029 3.96244 1.98288 4.71259 1.23273C5.46273 0.482585 6.48015 0.0611572 7.54102 0.0611572C8.60188 0.0611572 9.6193 0.482585 10.3694 1.23273C11.1196 1.98288 11.541 3.00029 11.541 4.06116C11.541 5.12202 11.1196 6.13944 10.3694 6.88958C9.6193 7.63973 8.60188 8.06116 7.54102 8.06116C6.48015 8.06116 5.46273 7.63973 4.71259 6.88958C3.96244 6.13944 3.54102 5.12202 3.54102 4.06116ZM1.54102 15.0612H13.541C13.5035 12.5705 11.4723 10.5612 8.96914 10.5612H6.11289C3.61289 10.5612 1.58164 12.5705 1.54102 15.0612ZM0.541016 15.133C0.541016 12.0549 3.03477 9.56116 6.11289 9.56116H8.96914C12.0473 9.56116 14.541 12.0549 14.541 15.133C14.541 15.6455 14.1254 16.0612 13.6129 16.0612H1.46914C0.956641 16.0612 0.541016 15.6455 0.541016 15.133Z" fill="#1D2E8C"/>
</svg>
