<svg width="21" height="21" viewBox="0 0 21 21" fill="none" xmlns="http://www.w3.org/2000/svg">
<path d="M15.541 8.18616C15.541 7.28332 15.3632 6.38932 15.0177 5.55521C14.6722 4.7211 14.1658 3.9632 13.5274 3.3248C12.889 2.6864 12.1311 2.17999 11.297 1.83449C10.4629 1.48898 9.56885 1.31116 8.66602 1.31116C7.76318 1.31116 6.86918 1.48898 6.03507 1.83449C5.20095 2.17999 4.44306 2.6864 3.80466 3.3248C3.16625 3.9632 2.65984 4.7211 2.31434 5.55521C1.96884 6.38932 1.79102 7.28332 1.79102 8.18616C1.79102 9.089 1.96884 9.98299 2.31434 10.8171C2.65984 11.6512 3.16625 12.4091 3.80466 13.0475C4.44306 13.6859 5.20095 14.1923 6.03507 14.5378C6.86918 14.8833 7.76318 15.0612 8.66602 15.0612C9.56885 15.0612 10.4629 14.8833 11.297 14.5378C12.1311 14.1923 12.889 13.6859 13.5274 13.0475C14.1658 12.4091 14.6722 11.6512 15.0177 10.8171C15.3632 9.98299 15.541 9.089 15.541 8.18616ZM13.9512 14.358C12.5332 15.5768 10.6855 16.3112 8.66602 16.3112C4.17773 16.3112 0.541016 12.6744 0.541016 8.18616C0.541016 3.69788 4.17773 0.0611572 8.66602 0.0611572C13.1543 0.0611572 16.791 3.69788 16.791 8.18616C16.791 10.2057 16.0566 12.0533 14.8379 13.4713L20.3574 18.9948C20.5996 19.2369 20.5996 19.6354 20.3574 19.8776C20.1152 20.1198 19.7168 20.1198 19.4746 19.8776L13.9512 14.358Z" fill="#1D2E8C"/>
</svg>
