<svg width="25" height="25" viewBox="0 0 25 25" fill="none" xmlns="http://www.w3.org/2000/svg">
<g clip-path="url(#clip0_18_305)">
<path d="M22.0411 3.86483C22.0326 3.82408 22.0128 3.78656 21.9838 3.75669C21.9548 3.72682 21.918 3.70583 21.8775 3.69617C19.1785 3.03629 12.9424 5.38781 9.5637 8.76509C8.96108 9.36283 8.41172 10.012 7.92183 10.7051C6.87994 10.6129 5.83804 10.6899 4.95006 11.077C2.44464 12.1797 1.71517 15.057 1.51195 16.2947C1.50043 16.3625 1.50478 16.432 1.52466 16.4978C1.54454 16.5635 1.57941 16.6238 1.62653 16.6738C1.67365 16.7239 1.73173 16.7623 1.79621 16.786C1.86068 16.8098 1.9298 16.8183 1.99811 16.8108L6.02145 16.3671C6.02432 16.6704 6.04262 16.9734 6.07628 17.2749C6.09653 17.4842 6.18946 17.6799 6.33894 17.8278L7.89695 19.3822C8.04505 19.5315 8.24063 19.6244 8.44992 19.6448C8.74971 19.6784 9.051 19.6967 9.35265 19.6997L8.91119 23.7179C8.90383 23.7862 8.91238 23.8553 8.93619 23.9197C8.96 23.9842 8.9984 24.0422 9.0484 24.0893C9.0984 24.1364 9.15863 24.1713 9.22437 24.1912C9.29011 24.2111 9.35957 24.2155 9.4273 24.2041C10.6627 24.0059 13.5451 23.2765 14.6414 20.771C15.0284 19.8831 15.1077 18.8462 15.0183 17.8094C15.7131 17.3195 16.364 16.77 16.9634 16.1671C20.3527 12.7949 22.6908 6.69789 22.0411 3.86483ZM13.582 12.1442C13.2725 11.8349 13.0617 11.4408 12.9762 11.0117C12.8907 10.5826 12.9345 10.1378 13.1018 9.73354C13.2692 9.32928 13.5527 8.98375 13.9165 8.74064C14.2803 8.49753 14.708 8.36777 15.1455 8.36777C15.583 8.36777 16.0107 8.49753 16.3745 8.74064C16.7383 8.98375 17.0218 9.32928 17.1892 9.73354C17.3565 10.1378 17.4002 10.5826 17.3148 11.0117C17.2293 11.4408 17.0185 11.8349 16.709 12.1442C16.5038 12.3497 16.2601 12.5128 15.9918 12.624C15.7235 12.7352 15.4359 12.7925 15.1455 12.7925C14.8551 12.7925 14.5675 12.7352 14.2992 12.624C14.0309 12.5128 13.7872 12.3497 13.582 12.1442Z" fill="#FFFFFF"/>
<path d="M7.79089 20.5079C7.53837 20.7609 7.13332 20.8595 6.64578 20.9438C5.55043 21.1304 4.58319 20.1839 4.77996 19.0766C4.85507 18.6568 5.07718 18.0684 5.21543 17.9301C5.24564 17.9005 5.26575 17.8621 5.27291 17.8204C5.28006 17.7786 5.27388 17.7357 5.25526 17.6977C5.23664 17.6597 5.20652 17.6286 5.16918 17.6086C5.13183 17.5887 5.08916 17.5811 5.04723 17.5868C4.4347 17.6618 3.86485 17.9395 3.4284 18.3757C2.34504 19.46 2.24274 23.4833 2.24274 23.4833C2.24274 23.4833 6.26838 23.381 7.35174 22.2968C7.78936 21.8607 8.06741 21.2899 8.14111 20.6765C8.15816 20.4839 7.92361 20.3692 7.79089 20.5079Z" fill="#FFFFFF"/>
</g>
<defs>
<clipPath id="clip0_18_305">
<rect width="23.5935" height="23.5935" fill="white" transform="translate(0.520447 0.921997)"/>
</clipPath>
</defs>
</svg>
